<svg
      xmlns="http://www.w3.org/2000/svg"
      x="0"
      y="0"
      version="1.1"
      viewBox="0 0 362.8 362.8"
    >
      <path
        d="M209.3 156.6c.1-.1.1-.3.2-.4 4.6-9.8 10.7-18.2 18.2-25-5.5-2.4-11.2-4-17.2-5-8.1 9.6-11.9 20.3-13.7 29.2 4.2-.3 8.4.1 12.5 1.2z"
        fill="currentColor"
      />
      <path
        d="M248.3 180.6v50.5c0 8.3 6.7 15 15 15 4.2 0 7.9-1.7 10.6-4.4s4.4-6.5 4.4-10.6v-14l20 20c16.5 16.5 16.4 43.4-.1 60.1-16.7 16.5-43.6 16.6-60.1.1l-69.2-69.7c-16.5-16.5-16.5-43.5 0-60 3.6-3.6 7.8-6.5 12.2-8.5.5-3.7 1.2-7.7 2.3-12.1 2.1-7.8 5.2-15.1 9.2-21.6-17 1.4-32.8 8.7-45 20.9-13.6 13.6-21.2 31.8-21.2 51.3 0 19.4 7.5 37.6 21.1 51.2l69.2 69.7c13.6 13.6 31.9 21.1 51.4 21.1 19.3-.1 37.5-7.5 51.1-21.1l.2-.2c13.5-13.6 21-31.8 21.1-51.1.1-19.5-7.4-37.8-21.1-51.4l-44.3-44.3c-2.7-3.6-7.1-6-12-6-8.1.1-14.8 6.8-14.8 15.1z"
        fill="currentColor"
      />
      <path
        d="M248.3 180.6v50.5c0 8.3 6.7 15 15 15 4.2 0 7.9-1.7 10.6-4.4s4.4-6.5 4.4-10.6v-14l20 20c16.5 16.5 16.4 43.4-.1 60.1-16.7 16.5-43.6 16.6-60.1.1l-69.2-69.7c-16.5-16.5-16.5-43.5 0-60 3.6-3.6 7.8-6.5 12.2-8.5.5-3.7 1.2-7.7 2.3-12.1 2.1-7.8 5.2-15.1 9.2-21.6-17 1.4-32.8 8.7-45 20.9-13.6 13.6-21.2 31.8-21.2 51.3 0 19.4 7.5 37.6 21.1 51.2l69.2 69.7c13.6 13.6 31.9 21.1 51.4 21.1 19.3-.1 37.5-7.5 51.1-21.1l.2-.2c13.5-13.6 21-31.8 21.1-51.1.1-19.5-7.4-37.8-21.1-51.4l-44.3-44.3c-2.7-3.6-7.1-6-12-6-8.1.1-14.8 6.8-14.8 15.1z"
        fill="currentColor"
      />
      <path
        d="M223.2 162c-.1.2-.2.4-.3.7 2.1 1.5 4.1 3.1 6 5l8.3 8.3v-.4c0-11.5 9.3-20.8 20.8-20.8h.4l-8.3-8.3c-2.7-2.7-5.7-5.2-8.7-7.4-7.6 5.8-13.7 13.5-18.2 22.9z"
        fill="currentColor"
      />
      <path
        d="M118.6 184v-50.5c0-8.3-6.7-15-15-15-4.2 0-7.9 1.7-10.6 4.4s-4.4 6.5-4.4 10.6v14l-20-20C52 111 52 84.1 68.6 67.4c16.7-16.5 43.6-16.6 60.1-.1L169 108l11.4 11.4c6.2-1.5 12.6-2.3 19.2-2.3 8.5 0 16.8 1.2 24.7 3.7L150 46.1C136.3 32.4 118 24.9 98.5 25 79.2 25 61 32.5 47.4 46l-.2.2c-13.5 13.7-21 31.8-21 51.1-.1 19.5 7.4 37.8 21.1 51.4L91.5 193c2.7 3.6 7.1 6 12 6 8.3 0 15.1-6.7 15.1-15z"
        fill="#b4b4b9"
      />
    </svg>
